<svg width="24" height="24" viewBox="0 0 24 24" fill="none" xmlns="http://www.w3.org/2000/svg">
<path fill-rule="evenodd" clip-rule="evenodd" d="M12 23C18.0751 23 23 18.0751 23 12C23 5.92487 18.0751 1 12 1C5.92487 1 1 5.92487 1 12C1 18.0751 5.92487 23 12 23ZM11.1425 14.055C11.0875 14.37 11.06 14.7075 11.06 15.0675H12.725C12.725 14.7625 12.735 14.52 12.755 14.34C12.775 14.155 12.8525 13.9475 12.9875 13.7175C13.0825 13.5575 13.2025 13.41 13.3475 13.275C13.4925 13.14 13.65 13.0025 13.82 12.8625C13.99 12.7175 14.1575 12.5575 14.3225 12.3825C14.6375 12.0475 14.895 11.6775 15.095 11.2725C15.3 10.8675 15.4025 10.4275 15.4025 9.95248C15.4025 9.59748 15.3425 9.25498 15.2225 8.92498C15.1075 8.58998 14.935 8.29248 14.705 8.03248C14.39 7.66248 13.995 7.39498 13.52 7.22998C13.05 7.06498 12.55 6.98248 12.02 6.98248C11.65 6.98248 11.28 7.03998 10.91 7.15498C10.54 7.26498 10.21 7.43498 9.92 7.66498C9.58 7.91998 9.31 8.25248 9.11 8.66248C8.91 9.07248 8.79 9.51248 8.75 9.98248H10.4C10.395 9.75748 10.4275 9.54998 10.4975 9.35998C10.5725 9.16498 10.6875 9.00248 10.8425 8.87248C10.9875 8.73748 11.1675 8.63748 11.3825 8.57248C11.6025 8.50748 11.8325 8.47498 12.0725 8.47498C12.3375 8.47498 12.5925 8.51748 12.8375 8.60248C13.0825 8.68248 13.285 8.82248 13.445 9.02248C13.55 9.14248 13.625 9.28498 13.67 9.44998C13.715 9.61498 13.7375 9.79248 13.7375 9.98248C13.7375 10.2425 13.7025 10.485 13.6325 10.71C13.5675 10.935 13.435 11.1575 13.235 11.3775C12.995 11.6325 12.765 11.8425 12.545 12.0075C12.33 12.1675 12.13 12.3325 11.945 12.5025C11.765 12.6675 11.6075 12.885 11.4725 13.155C11.3125 13.44 11.2025 13.74 11.1425 14.055ZM11.0675 16.185V18H12.725V16.185H11.0675Z" fill="#5282FF"/>
</svg>
