<svg width="52" height="51" viewBox="0 0 52 51" fill="none" xmlns="http://www.w3.org/2000/svg">
<path d="M27.8329 13.5388L17.7539 16.2395C14.081 17.2236 12.5575 19.8621 13.5416 23.5346L16.2394 33.603C17.2235 37.2756 19.862 38.7988 23.535 37.8146L33.6139 35.114C37.2868 34.1298 38.8007 31.494 37.8166 27.8214L35.1188 17.753C34.1347 14.0805 31.5058 12.5547 27.8329 13.5388Z" fill="#5282FF"/>
<g opacity="0.5" filter="url(#filter0_f_191_14006)">
<path d="M27.1955 17.9987L20.5336 19.7837C18.1059 20.4342 17.0812 22.1117 17.7003 24.422L19.3974 30.7558C20.0164 33.0661 21.7426 34.0065 24.1703 33.356L30.8321 31.571C33.2598 30.9205 34.2782 29.2447 33.6592 26.9343L31.962 20.6006C31.343 18.2903 29.6231 17.3482 27.1955 17.9987Z" fill="#5282FF"/>
</g>
<g filter="url(#filter1_b_191_14006)">
<path d="M34.853 18.8369H25.1702C21.3842 18.8369 18.8379 21.4949 18.8379 25.4484V34.5728C18.8379 38.5151 21.3842 41.1732 25.1702 41.1732H34.853C38.639 41.1732 41.1741 38.5151 41.1741 34.5728V25.4484C41.1741 21.4949 38.639 18.8369 34.853 18.8369Z" fill="#789CFF"/>
<path d="M34.853 18.3369H25.1702C23.1558 18.3369 21.4372 19.0468 20.2232 20.3143C19.011 21.5798 18.3379 23.3633 18.3379 25.4484V34.5728C18.3379 36.6527 19.0112 38.4334 20.2234 39.6974C21.4374 40.9633 23.1559 41.6732 25.1702 41.6732H34.853C36.8674 41.6732 38.5834 40.9632 39.7946 39.697C41.004 38.4327 41.6741 36.6521 41.6741 34.5728V25.4484C41.6741 23.3639 41.0042 21.5805 39.7948 20.3147C38.5835 19.0469 36.8675 18.3369 34.853 18.3369Z" stroke="url(#paint0_linear_191_14006)" stroke-linecap="round" stroke-linejoin="round"/>
</g>
<g filter="url(#filter2_b_191_14006)">
<path d="M42.3598 17.1963C41.4535 17.1963 40.7188 17.931 40.7188 18.8373C40.7188 19.7436 41.4535 20.4783 42.3598 20.4783C43.2661 20.4783 44.0008 19.7436 44.0008 18.8373C44.0008 18.4021 43.8279 17.9847 43.5202 17.6769C43.2124 17.3692 42.795 17.1963 42.3598 17.1963Z" fill="#5282FF"/>
</g>
<g filter="url(#filter3_bd_191_14006)">
<path d="M35.8498 28.0274L32.6581 32.146C32.5238 32.325 32.3224 32.4418 32.1002 32.4696C31.8779 32.4973 31.6539 32.4336 31.4796 32.2931L28.4156 29.8906L25.6561 33.46C25.4562 33.7774 25.067 33.92 24.7091 33.807C24.3511 33.694 24.1147 33.3539 24.1339 32.9795V32.9795C24.1322 32.7943 24.1947 32.6142 24.3107 32.4696L27.6104 28.2137C27.743 28.0362 27.9417 27.9194 28.1616 27.8899C28.3815 27.8604 28.6041 27.9206 28.779 28.0568L31.843 30.4692L34.5338 27.0076C34.6632 26.8291 34.8595 26.7106 35.0779 26.6792C35.2963 26.6478 35.5181 26.7061 35.6927 26.8409C36.0533 27.1229 36.123 27.6407 35.8498 28.0078V28.0274Z" fill="white"/>
<path d="M24.1339 32.9795L24.3339 32.9777C24.3326 32.8387 24.3795 32.7034 24.4667 32.5948L24.4667 32.5948L24.4687 32.5922L27.7684 28.3363L27.7684 28.3363L27.7706 28.3334C27.871 28.199 28.0216 28.1105 28.1883 28.0881C28.3548 28.0658 28.5233 28.1113 28.6557 28.2143C28.6559 28.2144 28.656 28.2145 28.6561 28.2146L31.7193 30.6263L31.8774 30.7508L32.0009 30.5919L34.6917 27.1303L34.6918 27.1304L34.6958 27.125C34.7933 26.9903 34.9415 26.9009 35.1064 26.8772C35.2711 26.8535 35.4383 26.8974 35.57 26.9988C35.8447 27.2141 35.8976 27.6086 35.6893 27.8884L35.6498 27.9416V27.959L32.5 32.0235L32.5 32.0235L32.4981 32.026C32.3964 32.1616 32.2439 32.2501 32.0754 32.2711C31.9069 32.2921 31.7372 32.2438 31.6052 32.1374L31.6052 32.1374L31.6031 32.1357L28.5391 29.7332L28.3806 29.609L28.2574 29.7683L25.4978 33.3377L25.492 33.3453L25.4868 33.3535C25.3355 33.5937 25.0406 33.7019 24.7693 33.6162C24.498 33.5306 24.3191 33.273 24.3336 32.9898L24.1339 32.9795Z" stroke="url(#paint1_linear_191_14006)" stroke-width="0.4"/>
</g>
<defs>
<filter id="filter0_f_191_14006" x="0.523438" y="0.797852" width="50.3125" height="49.7598" filterUnits="userSpaceOnUse" color-interpolation-filters="sRGB">
<feFlood flood-opacity="0" result="BackgroundImageFix"/>
<feBlend mode="normal" in="SourceGraphic" in2="BackgroundImageFix" result="shape"/>
<feGaussianBlur stdDeviation="8.5" result="effect1_foregroundBlur_191_14006"/>
</filter>
<filter id="filter1_b_191_14006" x="-6.16211" y="-6.16309" width="72.3359" height="72.3359" filterUnits="userSpaceOnUse" color-interpolation-filters="sRGB">
<feFlood flood-opacity="0" result="BackgroundImageFix"/>
<feGaussianBlur in="BackgroundImageFix" stdDeviation="12"/>
<feComposite in2="SourceAlpha" operator="in" result="effect1_backgroundBlur_191_14006"/>
<feBlend mode="normal" in="SourceGraphic" in2="effect1_backgroundBlur_191_14006" result="shape"/>
</filter>
<filter id="filter2_b_191_14006" x="25.7188" y="2.19629" width="33.2812" height="33.2822" filterUnits="userSpaceOnUse" color-interpolation-filters="sRGB">
<feFlood flood-opacity="0" result="BackgroundImageFix"/>
<feGaussianBlur in="BackgroundImageFix" stdDeviation="7.5"/>
<feComposite in2="SourceAlpha" operator="in" result="effect1_backgroundBlur_191_14006"/>
<feBlend mode="normal" in="SourceGraphic" in2="effect1_backgroundBlur_191_14006" result="shape"/>
</filter>
<filter id="filter3_bd_191_14006" x="9.13281" y="11.6709" width="41.8828" height="37.1748" filterUnits="userSpaceOnUse" color-interpolation-filters="sRGB">
<feFlood flood-opacity="0" result="BackgroundImageFix"/>
<feGaussianBlur in="BackgroundImageFix" stdDeviation="7.5"/>
<feComposite in2="SourceAlpha" operator="in" result="effect1_backgroundBlur_191_14006"/>
<feColorMatrix in="SourceAlpha" type="matrix" values="0 0 0 0 0 0 0 0 0 0 0 0 0 0 0 0 0 0 127 0" result="hardAlpha"/>
<feOffset dx="5" dy="5"/>
<feGaussianBlur stdDeviation="5"/>
<feColorMatrix type="matrix" values="0 0 0 0 1 0 0 0 0 0.321569 0 0 0 0 0.54902 0 0 0 0.5 0"/>
<feBlend mode="normal" in2="effect1_backgroundBlur_191_14006" result="effect2_dropShadow_191_14006"/>
<feBlend mode="normal" in="SourceGraphic" in2="effect2_dropShadow_191_14006" result="shape"/>
</filter>
<linearGradient id="paint0_linear_191_14006" x1="22.3935" y1="21.4391" x2="36.6416" y2="39.0858" gradientUnits="userSpaceOnUse">
<stop stop-color="white" stop-opacity="0.25"/>
<stop offset="1" stop-color="white" stop-opacity="0"/>
</linearGradient>
<linearGradient id="paint1_linear_191_14006" x1="26.0245" y1="27.5067" x2="29.7124" y2="35.0724" gradientUnits="userSpaceOnUse">
<stop stop-color="white" stop-opacity="0.25"/>
<stop offset="1" stop-color="white" stop-opacity="0"/>
</linearGradient>
</defs>
</svg>
