<svg width="49" height="48" viewBox="0 0 49 48" fill="none" xmlns="http://www.w3.org/2000/svg">
<path d="M24.4222 13.2471C30.5556 13.2471 35 18.2509 35 23.8038C35 25.5773 34.4827 27.4036 33.5748 29.0716C33.4059 29.346 33.3848 29.6944 33.5009 30.0217L34.2082 32.3864C34.3666 32.9564 33.881 33.3787 33.3426 33.2098L31.2101 32.5764C30.6295 32.3864 30.1756 32.6292 29.6361 32.9564C28.0949 33.8643 26.1746 34.3288 24.4433 34.3288C19.2072 34.3288 13.8866 30.2856 13.8866 23.7721C13.8866 18.1559 18.426 13.2471 24.4222 13.2471" fill="#5282FF"/>
<g opacity="0.5" filter="url(#filter0_f_191_14016)">
<path d="M31.1631 23.9087C31.1631 27.6749 28.1107 30.7266 24.3452 30.7266C20.5797 30.7266 17.5273 27.6749 17.5273 23.9087C17.5273 20.1439 20.5797 17.0908 24.3452 17.0908C28.1107 17.0908 31.1631 20.1439 31.1631 23.9087Z" fill="#5282FF"/>
</g>
<g filter="url(#filter1_b_191_14016)">
<mask id="path-3-outside-1_191_14016" maskUnits="userSpaceOnUse" x="2" y="4" width="29" height="29" fill="black">
<rect fill="white" x="2" y="4" width="29" height="29"/>
<path d="M16.4977 5C8.6712 5 3 11.3852 3 18.4708C3 20.7339 3.66007 23.0643 4.81856 25.1927C5.03409 25.5429 5.06103 25.9875 4.91285 26.4051L4.01031 29.4225C3.80825 30.1499 4.4279 30.6888 5.11491 30.4732L7.83601 29.665C8.5769 29.4225 9.15615 29.7324 9.8445 30.15C11.8112 31.3084 14.2616 31.9012 16.4708 31.9012C23.1523 31.9012 29.9416 26.7418 29.9416 18.4304C29.9416 11.2639 24.1491 5 16.4977 5"/>
</mask>
<path d="M16.4977 5C8.6712 5 3 11.3852 3 18.4708C3 20.7339 3.66007 23.0643 4.81856 25.1927C5.03409 25.5429 5.06103 25.9875 4.91285 26.4051L4.01031 29.4225C3.80825 30.1499 4.4279 30.6888 5.11491 30.4732L7.83601 29.665C8.5769 29.4225 9.15615 29.7324 9.8445 30.15C11.8112 31.3084 14.2616 31.9012 16.4708 31.9012C23.1523 31.9012 29.9416 26.7418 29.9416 18.4304C29.9416 11.2639 24.1491 5 16.4977 5" fill="#779CFF"/>
<path d="M16.4977 6C17.05 6 17.4977 5.55228 17.4977 5C17.4977 4.44772 17.05 4 16.4977 4V6ZM4.81856 25.1927L3.94024 25.6708C3.94871 25.6864 3.9576 25.7017 3.9669 25.7168L4.81856 25.1927ZM4.91285 26.4051L3.97042 26.0707C3.96481 26.0865 3.9596 26.1024 3.95479 26.1185L4.91285 26.4051ZM4.01031 29.4225L3.05225 29.136C3.05037 29.1423 3.04855 29.1486 3.04679 29.1549L4.01031 29.4225ZM5.11491 30.4732L4.83018 29.5146C4.8253 29.5161 4.82043 29.5176 4.81557 29.5191L5.11491 30.4732ZM7.83601 29.665L8.12074 30.6236C8.12955 30.621 8.13832 30.6183 8.14705 30.6154L7.83601 29.665ZM9.8445 30.15L9.32579 31.005L9.33697 31.0116L9.8445 30.15ZM16.4977 4C15.9454 4 15.4977 4.44772 15.4977 5C15.4977 5.55228 15.9454 6 16.4977 6V4ZM16.4977 4C8.08602 4 2 10.8663 2 18.4708H4C4 11.904 9.25638 6 16.4977 6V4ZM2 18.4708C2 20.9248 2.71418 23.4183 3.94024 25.6708L5.69688 24.7146C4.60596 22.7104 4 20.5429 4 18.4708H2ZM3.9669 25.7168C3.99967 25.7701 4.03392 25.8917 3.97042 26.0707L5.85528 26.7395C6.08814 26.0832 6.0685 25.3158 5.67021 24.6686L3.9669 25.7168ZM3.95479 26.1185L3.05225 29.136L4.96837 29.7091L5.87091 26.6916L3.95479 26.1185ZM3.04679 29.1549C2.85104 29.8596 3.04481 30.5697 3.55141 31.0367C4.04678 31.4934 4.75164 31.6353 5.41425 31.4274L4.81557 29.5191C4.80009 29.524 4.80577 29.5187 4.82803 29.5233C4.84919 29.5277 4.87853 29.54 4.90701 29.5663C4.93627 29.5932 4.957 29.6282 4.96637 29.6628C4.97603 29.6986 4.9679 29.7115 4.97383 29.6902L3.04679 29.1549ZM5.39965 31.4319L8.12074 30.6236L7.55128 28.7064L4.83018 29.5146L5.39965 31.4319ZM8.14705 30.6154C8.40718 30.5303 8.61216 30.572 9.32583 31.0049L10.3632 29.295C9.70013 28.8927 8.74663 28.3148 7.52497 28.7146L8.14705 30.6154ZM9.33697 31.0116C11.4731 32.2699 14.1021 32.9012 16.4708 32.9012V30.9012C14.421 30.9012 12.1494 30.347 10.352 29.2883L9.33697 31.0116ZM16.4708 32.9012C23.624 32.9012 30.9416 27.3714 30.9416 18.4304H28.9416C28.9416 26.1123 22.6806 30.9012 16.4708 30.9012V32.9012ZM30.9416 18.4304C30.9416 10.7339 24.7235 4 16.4977 4V6C23.5748 6 28.9416 11.7939 28.9416 18.4304H30.9416Z" fill="url(#paint0_linear_191_14016)" mask="url(#path-3-outside-1_191_14016)"/>
</g>
<mask id="path-5-inside-2_191_14016" fill="white">
<path fill-rule="evenodd" clip-rule="evenodd" d="M16.445 20.2085C15.4885 20.195 14.7207 19.4272 14.7207 18.4707C14.7207 17.5278 15.502 16.7465 16.445 16.7599C17.4014 16.7599 18.1692 17.5278 18.1692 18.4842C18.1692 19.4272 17.4014 20.2085 16.445 20.2085ZM10.234 20.2085C9.29107 20.2085 8.50977 19.4272 8.50977 18.4842C8.50977 17.5278 9.2776 16.76 10.234 16.76C11.1905 16.76 11.9583 17.5278 11.9583 18.4842C11.9583 19.4272 11.1905 20.195 10.234 20.2085ZM20.9297 18.4841C20.9297 19.4271 21.6975 20.2084 22.6539 20.2084C23.6104 20.2084 24.3782 19.4271 24.3782 18.4841C24.3782 17.5277 23.6104 16.7599 22.6539 16.7599C21.6975 16.7599 20.9297 17.5277 20.9297 18.4841Z"/>
</mask>
<path fill-rule="evenodd" clip-rule="evenodd" d="M16.445 20.2085C15.4885 20.195 14.7207 19.4272 14.7207 18.4707C14.7207 17.5278 15.502 16.7465 16.445 16.7599C17.4014 16.7599 18.1692 17.5278 18.1692 18.4842C18.1692 19.4272 17.4014 20.2085 16.445 20.2085ZM10.234 20.2085C9.29107 20.2085 8.50977 19.4272 8.50977 18.4842C8.50977 17.5278 9.2776 16.76 10.234 16.76C11.1905 16.76 11.9583 17.5278 11.9583 18.4842C11.9583 19.4272 11.1905 20.195 10.234 20.2085ZM20.9297 18.4841C20.9297 19.4271 21.6975 20.2084 22.6539 20.2084C23.6104 20.2084 24.3782 19.4271 24.3782 18.4841C24.3782 17.5277 23.6104 16.7599 22.6539 16.7599C21.6975 16.7599 20.9297 17.5277 20.9297 18.4841Z" fill="url(#paint1_linear_191_14016)"/>
<path d="M16.445 20.2085L16.4393 20.6085H16.445V20.2085ZM16.445 16.7599L16.4392 17.1599H16.445V16.7599ZM10.234 20.2085L10.234 20.6085L10.2397 20.6084L10.234 20.2085ZM14.3207 18.4707C14.3207 19.6491 15.2675 20.5919 16.4393 20.6084L16.4506 19.8085C15.7096 19.7981 15.1207 19.2052 15.1207 18.4707H14.3207ZM16.4507 16.36C15.2812 16.3433 14.3207 17.308 14.3207 18.4707H15.1207C15.1207 17.7475 15.7228 17.1497 16.4392 17.1599L16.4507 16.36ZM18.5692 18.4842C18.5692 17.3069 17.6223 16.3599 16.445 16.3599V17.1599C17.1805 17.1599 17.7692 17.7487 17.7692 18.4842H18.5692ZM16.445 20.6085C17.6243 20.6085 18.5692 19.646 18.5692 18.4842H17.7692C17.7692 19.2083 17.1784 19.8085 16.445 19.8085V20.6085ZM8.10977 18.4842C8.10977 19.6481 9.07016 20.6085 10.234 20.6085V19.8085C9.51198 19.8085 8.90977 19.2063 8.90977 18.4842H8.10977ZM10.234 16.36C9.05669 16.36 8.10977 17.3069 8.10977 18.4842H8.90977C8.90977 17.7487 9.49851 17.16 10.234 17.16V16.36ZM12.3583 18.4842C12.3583 17.3069 11.4114 16.36 10.234 16.36V17.16C10.9695 17.16 11.5583 17.7487 11.5583 18.4842H12.3583ZM10.2397 20.6084C11.4095 20.592 12.3583 19.6512 12.3583 18.4842H11.5583C11.5583 19.2032 10.9714 19.7981 10.2284 19.8085L10.2397 20.6084ZM22.6539 19.8084C21.9205 19.8084 21.3297 19.2082 21.3297 18.4841H20.5297C20.5297 19.646 21.4746 20.6084 22.6539 20.6084V19.8084ZM23.9782 18.4841C23.9782 19.2082 23.3874 19.8084 22.6539 19.8084V20.6084C23.8333 20.6084 24.7782 19.646 24.7782 18.4841H23.9782ZM22.6539 17.1599C23.3895 17.1599 23.9782 17.7486 23.9782 18.4841H24.7782C24.7782 17.3068 23.8313 16.3599 22.6539 16.3599V17.1599ZM21.3297 18.4841C21.3297 17.7486 21.9184 17.1599 22.6539 17.1599V16.3599C21.4766 16.3599 20.5297 17.3068 20.5297 18.4841H21.3297Z" fill="url(#paint2_linear_191_14016)" mask="url(#path-5-inside-2_191_14016)"/>
<defs>
<filter id="filter0_f_191_14016" x="0.527344" y="0.0908203" width="47.6348" height="47.6357" filterUnits="userSpaceOnUse" color-interpolation-filters="sRGB">
<feFlood flood-opacity="0" result="BackgroundImageFix"/>
<feBlend mode="normal" in="SourceGraphic" in2="BackgroundImageFix" result="shape"/>
<feGaussianBlur stdDeviation="8.5" result="effect1_foregroundBlur_191_14016"/>
</filter>
<filter id="filter1_b_191_14016" x="-22" y="-20" width="76.9414" height="76.9014" filterUnits="userSpaceOnUse" color-interpolation-filters="sRGB">
<feFlood flood-opacity="0" result="BackgroundImageFix"/>
<feGaussianBlur in="BackgroundImageFix" stdDeviation="12"/>
<feComposite in2="SourceAlpha" operator="in" result="effect1_backgroundBlur_191_14016"/>
<feBlend mode="normal" in="SourceGraphic" in2="effect1_backgroundBlur_191_14016" result="shape"/>
</filter>
<linearGradient id="paint0_linear_191_14016" x1="7.28866" y1="8.13402" x2="24.4433" y2="29.4124" gradientUnits="userSpaceOnUse">
<stop stop-color="white" stop-opacity="0.25"/>
<stop offset="1" stop-color="white" stop-opacity="0"/>
</linearGradient>
<linearGradient id="paint1_linear_191_14016" x1="23.2531" y1="17.3825" x2="5.9479" y2="19.9787" gradientUnits="userSpaceOnUse">
<stop stop-color="white"/>
<stop offset="1" stop-color="white" stop-opacity="0.2"/>
</linearGradient>
<linearGradient id="paint2_linear_191_14016" x1="11.0358" y1="17.1615" x2="11.802" y2="21.528" gradientUnits="userSpaceOnUse">
<stop stop-color="white" stop-opacity="0.25"/>
<stop offset="1" stop-color="white" stop-opacity="0"/>
</linearGradient>
</defs>
</svg>
