<svg width="44" height="45" viewBox="0 0 44 45" fill="none" xmlns="http://www.w3.org/2000/svg">
<g filter="url(#filter0_b_191_14035)">
<path d="M31.9033 24.9347C31.6866 24.5967 31.3787 24.2588 30.9795 24.0447C30.6601 23.887 30.4548 23.6279 30.2723 23.3238C29.6907 22.355 30.0328 21.0821 31.0023 20.5076C32.1428 19.8655 32.5078 18.4348 31.8463 17.3196L31.0821 15.9903C30.432 14.8751 29.0064 14.4808 27.8772 15.1342C26.8736 15.6749 25.5848 15.3145 25.0031 14.3569C24.8206 14.0415 24.718 13.7036 24.7408 13.3656C24.775 12.9263 24.6381 12.5095 24.4328 12.1715C24.0108 11.4731 23.2467 11 22.4027 11H20.7945C19.962 11.0225 19.1978 11.4731 18.7758 12.1715C18.5591 12.5095 18.4336 12.9263 18.4564 13.3656C18.4793 13.7036 18.3766 14.0415 18.1941 14.3569C17.6125 15.3145 16.3237 15.6749 15.3314 15.1342C14.1909 14.4808 12.7766 14.8751 12.1151 15.9903L11.3509 17.3196C10.7008 18.4348 11.0658 19.8655 12.1949 20.5076C13.1644 21.0821 13.5065 22.355 12.9363 23.3238C12.7424 23.6279 12.5371 23.887 12.2177 24.0447C11.83 24.2588 11.4878 24.5967 11.3053 24.9347C10.8833 25.6331 10.9061 26.5117 11.3281 27.244L12.1151 28.5957C12.5371 29.3167 13.3241 29.7673 14.1452 29.7673C14.533 29.7673 14.9892 29.6546 15.3542 29.4293C15.6393 29.2378 15.9815 29.1703 16.3579 29.1703C17.487 29.1703 18.4336 30.1052 18.4564 31.2205C18.4564 32.5159 19.5057 33.5298 20.8288 33.5298H22.3799C23.6915 33.5298 24.7408 32.5159 24.7408 31.2205C24.775 30.1052 25.7216 29.1703 26.8508 29.1703C27.2157 29.1703 27.5579 29.2378 27.8544 29.4293C28.2194 29.6546 28.6642 29.7673 29.0634 29.7673C29.8732 29.7673 30.6601 29.3167 31.0821 28.5957L31.8805 27.244C32.2911 26.4892 32.3253 25.6331 31.9033 24.9347" fill="#5282FF"/>
</g>
<g opacity="0.5" filter="url(#filter1_f_191_14035)">
<path d="M26.9853 23.7025C26.8736 23.5286 26.7148 23.3546 26.5089 23.2445C26.3443 23.1633 26.2384 23.0299 26.1443 22.8734C25.8444 22.3748 26.0208 21.7196 26.5207 21.4239C27.1088 21.0934 27.297 20.357 26.9559 19.783L26.5619 19.0988C26.2267 18.5248 25.4916 18.3219 24.9094 18.6582C24.3918 18.9365 23.7273 18.7509 23.4274 18.2581C23.3333 18.0958 23.2804 17.9218 23.2921 17.7479C23.3098 17.5217 23.2392 17.3072 23.1333 17.1333C22.9157 16.7738 22.5217 16.5303 22.0865 16.5303H21.2573C20.828 16.5419 20.434 16.7738 20.2164 17.1333C20.1047 17.3072 20.04 17.5217 20.0518 17.7479C20.0635 17.9218 20.0106 18.0958 19.9165 18.2581C19.6166 18.7509 18.952 18.9365 18.4404 18.6582C17.8523 18.3219 17.1231 18.5248 16.782 19.0988L16.388 19.783C16.0528 20.357 16.241 21.0934 16.8232 21.4239C17.323 21.7196 17.4995 22.3748 17.2054 22.8734C17.1055 23.0299 16.9996 23.1633 16.8349 23.2445C16.635 23.3546 16.4586 23.5286 16.3645 23.7025C16.1469 24.062 16.1586 24.5143 16.3762 24.8911L16.782 25.5869C16.9996 25.958 17.4054 26.1899 17.8288 26.1899C18.0287 26.1899 18.264 26.1319 18.4522 26.016C18.5992 25.9174 18.7756 25.8826 18.9697 25.8826C19.5519 25.8826 20.04 26.3639 20.0518 26.9379C20.0518 27.6046 20.5928 28.1265 21.275 28.1265H22.0748C22.7511 28.1265 23.2921 27.6046 23.2921 26.9379C23.3098 26.3639 23.7979 25.8826 24.3801 25.8826C24.5683 25.8826 24.7447 25.9174 24.8976 26.016C25.0858 26.1319 25.3151 26.1899 25.521 26.1899C25.9385 26.1899 26.3443 25.958 26.5619 25.5869L26.9735 24.8911C27.1852 24.5027 27.2029 24.062 26.9853 23.7025" fill="#5282FF"/>
</g>
<g filter="url(#filter2_b_191_14035)">
<mask id="path-3-outside-1_191_14035" maskUnits="userSpaceOnUse" x="16.2949" y="12.9814" width="28" height="30" fill="black">
<rect fill="white" x="16.2949" y="12.9814" width="28" height="30"/>
<path d="M42.6347 30.7167C42.372 30.3108 41.9987 29.905 41.5148 29.6479C41.1277 29.4585 40.8788 29.1473 40.6576 28.7821C39.9525 27.6186 40.3673 26.0898 41.5425 25.3998C42.9251 24.6287 43.3675 22.9105 42.5656 21.5712L41.6393 19.9747C40.8512 18.6354 39.1229 18.1619 37.7542 18.9466C36.5375 19.5959 34.9752 19.163 34.27 18.0131C34.0488 17.6342 33.9244 17.2284 33.952 16.8225C33.9935 16.2949 33.8276 15.7943 33.5787 15.3885C33.0672 14.5497 32.1408 13.9814 31.1177 13.9814H29.1682C28.159 14.0085 27.2326 14.5497 26.7211 15.3885C26.4584 15.7943 26.3063 16.2949 26.3339 16.8225C26.3616 17.2284 26.2371 17.6342 26.0159 18.0131C25.3108 19.163 23.7485 19.5959 22.5456 18.9466C21.163 18.1619 19.4486 18.6354 18.6467 19.9747L17.7204 21.5712C16.9323 22.9105 17.3747 24.6287 18.7435 25.3998C19.9187 26.0898 20.3335 27.6186 19.6422 28.7821C19.4071 29.1473 19.1583 29.4585 18.7711 29.6479C18.301 29.905 17.8863 30.3108 17.665 30.7167C17.1535 31.5555 17.1811 32.6107 17.6927 33.4901L18.6467 35.1136C19.1583 35.9794 20.1122 36.5206 21.1077 36.5206C21.5778 36.5206 22.1308 36.3853 22.5733 36.1147C22.9189 35.8847 23.3337 35.8036 23.7899 35.8036C25.1587 35.8036 26.3063 36.9265 26.3339 38.2658C26.3339 39.8217 27.6059 41.0393 29.2097 41.0393H31.0901C32.68 41.0393 33.952 39.8217 33.952 38.2658C33.9935 36.9265 35.1411 35.8036 36.5098 35.8036C36.9523 35.8036 37.367 35.8847 37.7265 36.1147C38.1689 36.3853 38.7082 36.5206 39.1921 36.5206C40.1737 36.5206 41.1277 35.9794 41.6393 35.1136L42.6071 33.4901C43.1048 32.5837 43.1463 31.5555 42.6347 30.7167"/>
</mask>
<path d="M42.6347 30.7167C42.372 30.3108 41.9987 29.905 41.5148 29.6479C41.1277 29.4585 40.8788 29.1473 40.6576 28.7821C39.9525 27.6186 40.3673 26.0898 41.5425 25.3998C42.9251 24.6287 43.3675 22.9105 42.5656 21.5712L41.6393 19.9747C40.8512 18.6354 39.1229 18.1619 37.7542 18.9466C36.5375 19.5959 34.9752 19.163 34.27 18.0131C34.0488 17.6342 33.9244 17.2284 33.952 16.8225C33.9935 16.2949 33.8276 15.7943 33.5787 15.3885C33.0672 14.5497 32.1408 13.9814 31.1177 13.9814H29.1682C28.159 14.0085 27.2326 14.5497 26.7211 15.3885C26.4584 15.7943 26.3063 16.2949 26.3339 16.8225C26.3616 17.2284 26.2371 17.6342 26.0159 18.0131C25.3108 19.163 23.7485 19.5959 22.5456 18.9466C21.163 18.1619 19.4486 18.6354 18.6467 19.9747L17.7204 21.5712C16.9323 22.9105 17.3747 24.6287 18.7435 25.3998C19.9187 26.0898 20.3335 27.6186 19.6422 28.7821C19.4071 29.1473 19.1583 29.4585 18.7711 29.6479C18.301 29.905 17.8863 30.3108 17.665 30.7167C17.1535 31.5555 17.1811 32.6107 17.6927 33.4901L18.6467 35.1136C19.1583 35.9794 20.1122 36.5206 21.1077 36.5206C21.5778 36.5206 22.1308 36.3853 22.5733 36.1147C22.9189 35.8847 23.3337 35.8036 23.7899 35.8036C25.1587 35.8036 26.3063 36.9265 26.3339 38.2658C26.3339 39.8217 27.6059 41.0393 29.2097 41.0393H31.0901C32.68 41.0393 33.952 39.8217 33.952 38.2658C33.9935 36.9265 35.1411 35.8036 36.5098 35.8036C36.9523 35.8036 37.367 35.8847 37.7265 36.1147C38.1689 36.3853 38.7082 36.5206 39.1921 36.5206C40.1737 36.5206 41.1277 35.9794 41.6393 35.1136L42.6071 33.4901C43.1048 32.5837 43.1463 31.5555 42.6347 30.7167" fill="#779CFF"/>
<path d="M41.7952 31.2601C42.0953 31.7237 42.7145 31.8563 43.1781 31.5562C43.6417 31.2561 43.7743 30.637 43.4742 30.1733L41.7952 31.2601ZM41.5148 29.6479L41.9839 28.7648C41.9742 28.7596 41.9643 28.7545 41.9543 28.7497L41.5148 29.6479ZM40.6576 28.7821L41.513 28.2641L41.5128 28.2638L40.6576 28.7821ZM41.5425 25.3998L41.0554 24.5265C41.0489 24.5301 41.0425 24.5338 41.0362 24.5375L41.5425 25.3998ZM42.5656 21.5712L41.7006 22.0731L41.7076 22.0849L42.5656 21.5712ZM41.6393 19.9747L42.5042 19.4729L42.5011 19.4676L41.6393 19.9747ZM37.7542 18.9466L38.225 19.8288C38.2339 19.824 38.2428 19.8191 38.2515 19.8141L37.7542 18.9466ZM34.27 18.0131L33.4065 18.5173C33.4101 18.5235 33.4138 18.5297 33.4175 18.5358L34.27 18.0131ZM33.952 16.8225L32.9551 16.7441L32.9543 16.7545L33.952 16.8225ZM33.5787 15.3885L32.725 15.9091L32.7262 15.9112L33.5787 15.3885ZM29.1682 13.9814V12.9814C29.1593 12.9814 29.1504 12.9816 29.1414 12.9818L29.1682 13.9814ZM26.7211 15.3885L27.5606 15.9318C27.5654 15.9243 27.5702 15.9168 27.5748 15.9091L26.7211 15.3885ZM26.3339 16.8225L25.3353 16.8749C25.3356 16.8801 25.3359 16.8853 25.3362 16.8905L26.3339 16.8225ZM26.0159 18.0131L26.8684 18.5358C26.8722 18.5297 26.8759 18.5235 26.8795 18.5173L26.0159 18.0131ZM22.5456 18.9466L22.052 19.8163C22.0582 19.8197 22.0643 19.8232 22.0706 19.8265L22.5456 18.9466ZM18.6467 19.9747L17.7886 19.461L17.7818 19.4729L18.6467 19.9747ZM17.7204 21.5712L18.5822 22.0783L18.5853 22.073L17.7204 21.5712ZM18.7435 25.3998L19.2498 24.5375C19.2446 24.5345 19.2395 24.5315 19.2343 24.5286L18.7435 25.3998ZM19.6422 28.7821L20.4831 29.3232C20.4895 29.3132 20.4958 29.3031 20.5019 29.2929L19.6422 28.7821ZM18.7711 29.6479L18.3316 28.7497C18.3181 28.7563 18.3046 28.7633 18.2914 28.7705L18.7711 29.6479ZM17.665 30.7167L18.5188 31.2374C18.5272 31.2235 18.5353 31.2095 18.5431 31.1953L17.665 30.7167ZM17.6927 33.4901L16.8283 33.993L16.8305 33.9968L17.6927 33.4901ZM18.6467 35.1136L17.7845 35.6202L17.7857 35.6223L18.6467 35.1136ZM22.5733 36.1147L23.095 36.9678C23.1059 36.9612 23.1166 36.9543 23.1272 36.9473L22.5733 36.1147ZM26.3339 38.2658H27.3339C27.3339 38.2589 27.3339 38.2521 27.3337 38.2452L26.3339 38.2658ZM33.952 38.2658L32.9525 38.2349C32.9522 38.2452 32.952 38.2555 32.952 38.2658L33.952 38.2658ZM37.7265 36.1147L37.1876 36.9571C37.1933 36.9607 37.199 36.9643 37.2048 36.9678L37.7265 36.1147ZM41.6393 35.1136L40.7803 34.6015L40.7783 34.6049L41.6393 35.1136ZM42.6071 33.4901L43.466 34.0022C43.4721 33.992 43.4779 33.9818 43.4836 33.9714L42.6071 33.4901ZM43.4885 30.196C43.2009 29.7245 42.5856 29.5754 42.1141 29.863C41.6425 30.1505 41.4934 30.7659 41.781 31.2374L43.4885 30.196ZM43.4742 30.1733C43.1485 29.6701 42.6598 29.1238 41.9839 28.7648L41.0457 30.5311C41.3376 30.6861 41.5956 30.9515 41.7952 31.2601L43.4742 30.1733ZM41.9543 28.7497C41.8217 28.6848 41.6965 28.567 41.513 28.2641L39.8023 29.3001C40.0612 29.7277 40.4337 30.2322 41.0754 30.5462L41.9543 28.7497ZM41.5128 28.2638C41.1077 27.5953 41.3361 26.6806 42.0488 26.2622L41.0362 24.5375C39.3984 25.499 38.7973 27.6418 39.8024 29.3004L41.5128 28.2638ZM42.0296 26.2732C43.91 25.2244 44.5125 22.8761 43.4236 21.0575L41.7076 22.0849C42.2226 22.9449 41.9402 24.033 41.0554 24.5265L42.0296 26.2732ZM43.4305 21.0693L42.5042 19.4729L40.7743 20.4766L41.7007 22.073L43.4305 21.0693ZM42.5011 19.4676C41.4373 17.6596 39.1045 17.0198 37.2568 18.079L38.2515 19.8141C39.1414 19.304 40.2651 19.6112 40.7774 20.4819L42.5011 19.4676ZM37.2833 18.0643C36.5321 18.4653 35.5503 18.188 35.1225 17.4903L33.4175 18.5358C34.4 20.1381 36.5429 20.7266 38.225 19.8288L37.2833 18.0643ZM35.1336 17.5088C34.9833 17.2515 34.9392 17.0443 34.9497 16.8905L32.9543 16.7545C32.9095 17.4124 33.1143 18.017 33.4065 18.5173L35.1336 17.5088ZM34.949 16.9009C35.0107 16.1151 34.7627 15.4062 34.4312 14.8657L32.7262 15.9112C32.8925 16.1824 32.9763 16.4747 32.9551 16.7441L34.949 16.9009ZM34.4325 14.8678C33.7526 13.7529 32.5141 12.9814 31.1177 12.9814V14.9814C31.7675 14.9814 32.3818 15.3464 32.725 15.9091L34.4325 14.8678ZM31.1177 12.9814H29.1682V14.9814H31.1177V12.9814ZM29.1414 12.9818C27.7951 13.0179 26.5565 13.7378 25.8673 14.8678L27.5748 15.9091C27.9088 15.3615 28.5229 14.9991 29.195 14.9811L29.1414 12.9818ZM25.8816 14.8451C25.5127 15.4149 25.2958 16.122 25.3353 16.8749L27.3326 16.7702C27.3167 16.4678 27.404 16.1737 27.5606 15.9318L25.8816 14.8451ZM25.3362 16.8905C25.3467 17.0443 25.3026 17.2515 25.1524 17.5088L26.8795 18.5173C27.1717 18.017 27.3764 17.4124 27.3316 16.7545L25.3362 16.8905ZM25.1634 17.4903C24.7337 18.1912 23.7527 18.4618 23.0207 18.0666L22.0706 19.8265C23.7442 20.7301 25.8879 20.1348 26.8684 18.5358L25.1634 17.4903ZM23.0392 18.0769C21.1779 17.0205 18.866 17.6618 17.7887 19.4611L19.5047 20.4884C20.0312 19.609 21.1481 19.3032 22.052 19.8163L23.0392 18.0769ZM17.7818 19.4729L16.8554 21.0693L18.5853 22.073L19.5116 20.4766L17.7818 19.4729ZM16.8585 21.064C15.7911 22.8781 16.3886 25.2209 18.2526 26.2711L19.2343 24.5286C18.3608 24.0365 18.0735 22.9429 18.5822 22.0783L16.8585 21.064ZM18.2372 26.2622C18.9498 26.6806 19.1815 27.5996 18.7825 28.2713L20.5019 29.2929C21.4854 27.6376 20.8875 25.499 19.2498 24.5375L18.2372 26.2622ZM18.8012 28.241C18.5933 28.564 18.4669 28.6835 18.3316 28.7497L19.2106 30.5462C19.8496 30.2336 20.2209 29.7307 20.4831 29.3232L18.8012 28.241ZM18.2914 28.7705C17.6732 29.1085 17.1104 29.6448 16.787 30.2381L18.5431 31.1953C18.6621 30.9769 18.9289 30.7014 19.2509 30.5253L18.2914 28.7705ZM16.8113 30.196C16.089 31.3804 16.152 32.8303 16.8283 33.993L18.5571 32.9873C18.2103 32.3912 18.218 31.7306 18.5188 31.2374L16.8113 30.196ZM16.8305 33.9968L17.7845 35.6202L19.5089 34.607L18.5549 32.9835L16.8305 33.9968ZM17.7857 35.6223C18.4773 36.7928 19.7588 37.5206 21.1077 37.5206V35.5206C20.4657 35.5206 19.8392 35.1661 19.5077 34.6049L17.7857 35.6223ZM21.1077 37.5206C21.7442 37.5206 22.481 37.3433 23.095 36.9678L22.0515 35.2616C21.7806 35.4273 21.4114 35.5206 21.1077 35.5206V37.5206ZM23.1272 36.9473C23.2484 36.8666 23.4431 36.8036 23.7899 36.8036V34.8036C23.2243 34.8036 22.5894 34.9028 22.0193 35.2822L23.1272 36.9473ZM23.7899 36.8036C24.6225 36.8036 25.3179 37.4992 25.3341 38.2865L27.3337 38.2452C27.2947 36.3537 25.6949 34.8036 23.7899 34.8036V36.8036ZM25.3339 38.2658C25.3339 40.4099 27.0903 42.0393 29.2097 42.0393V40.0393C28.1215 40.0393 27.3339 39.2334 27.3339 38.2658H25.3339ZM29.2097 42.0393H31.0901V40.0393H29.2097V42.0393ZM31.0901 42.0393C33.1989 42.0393 34.952 40.4068 34.952 38.2658H32.952C32.952 39.2365 32.1612 40.0393 31.0901 40.0393V42.0393ZM34.9516 38.2968C34.9762 37.4993 35.6794 36.8036 36.5098 36.8036V34.8036C34.6027 34.8036 33.0108 36.3537 32.9525 38.2349L34.9516 38.2968ZM36.5098 36.8036C36.8343 36.8036 37.0411 36.8634 37.1876 36.9571L38.2655 35.2724C37.693 34.9061 37.0702 34.8036 36.5098 34.8036V36.8036ZM37.2048 36.9678C37.8168 37.3421 38.5393 37.5206 39.1921 37.5206V35.5206C38.877 35.5206 38.5211 35.4285 38.2483 35.2616L37.2048 36.9678ZM39.1921 37.5206C40.5298 37.5206 41.81 36.7905 42.5002 35.6223L40.7783 34.6049C40.4454 35.1684 39.8176 35.5206 39.1921 35.5206V37.5206ZM42.4982 35.6257L43.466 34.0022L41.7481 32.9781L40.7803 34.6015L42.4982 35.6257ZM43.4836 33.9714C44.1224 32.8082 44.2182 31.3925 43.4885 30.196L41.781 31.2374C42.0744 31.7184 42.0873 32.3591 41.7305 33.0088L43.4836 33.9714Z" fill="url(#paint0_linear_191_14035)" mask="url(#path-3-outside-1_191_14035)"/>
</g>
<g filter="url(#filter3_b_191_14035)">
<path d="M30.1668 31.2337C27.9961 31.2337 26.2402 29.5426 26.2402 27.4185C26.2402 25.2945 27.9961 23.5898 30.1668 23.5898C32.3375 23.5898 34.0519 25.2945 34.0519 27.4185C34.0519 29.5426 32.3375 31.2337 30.1668 31.2337Z" fill="white"/>
<path d="M30.1668 31.0337C28.1006 31.0337 26.4402 29.4262 26.4402 27.4185C26.4402 25.4099 28.1015 23.7898 30.1668 23.7898C32.2293 23.7898 33.8519 25.4072 33.8519 27.4185C33.8519 29.429 32.2302 31.0337 30.1668 31.0337Z" stroke="url(#paint1_linear_191_14035)" stroke-width="0.4"/>
</g>
<defs>
<filter id="filter0_b_191_14035" x="-2" y="-2" width="47.2051" height="48.5293" filterUnits="userSpaceOnUse" color-interpolation-filters="sRGB">
<feFlood flood-opacity="0" result="BackgroundImageFix"/>
<feGaussianBlur in="BackgroundImageFix" stdDeviation="6.5"/>
<feComposite in2="SourceAlpha" operator="in" result="effect1_backgroundBlur_191_14035"/>
<feBlend mode="normal" in="SourceGraphic" in2="effect1_backgroundBlur_191_14035" result="shape"/>
</filter>
<filter id="filter1_f_191_14035" x="0.207031" y="0.530273" width="42.9336" height="43.5967" filterUnits="userSpaceOnUse" color-interpolation-filters="sRGB">
<feFlood flood-opacity="0" result="BackgroundImageFix"/>
<feBlend mode="normal" in="SourceGraphic" in2="BackgroundImageFix" result="shape"/>
<feGaussianBlur stdDeviation="8" result="effect1_foregroundBlur_191_14035"/>
</filter>
<filter id="filter2_b_191_14035" x="-7.70508" y="-11.0186" width="75.7051" height="77.0576" filterUnits="userSpaceOnUse" color-interpolation-filters="sRGB">
<feFlood flood-opacity="0" result="BackgroundImageFix"/>
<feGaussianBlur in="BackgroundImageFix" stdDeviation="12"/>
<feComposite in2="SourceAlpha" operator="in" result="effect1_backgroundBlur_191_14035"/>
<feBlend mode="normal" in="SourceGraphic" in2="effect1_backgroundBlur_191_14035" result="shape"/>
</filter>
<filter id="filter3_b_191_14035" x="11.2402" y="8.58984" width="37.8125" height="37.6436" filterUnits="userSpaceOnUse" color-interpolation-filters="sRGB">
<feFlood flood-opacity="0" result="BackgroundImageFix"/>
<feGaussianBlur in="BackgroundImageFix" stdDeviation="7.5"/>
<feComposite in2="SourceAlpha" operator="in" result="effect1_backgroundBlur_191_14035"/>
<feBlend mode="normal" in="SourceGraphic" in2="effect1_backgroundBlur_191_14035" result="shape"/>
</filter>
<linearGradient id="paint0_linear_191_14035" x1="21.3867" y1="17.1337" x2="38.8122" y2="37.6365" gradientUnits="userSpaceOnUse">
<stop stop-color="white" stop-opacity="0.25"/>
<stop offset="1" stop-color="white" stop-opacity="0"/>
</linearGradient>
<linearGradient id="paint1_linear_191_14035" x1="27.4837" y1="24.4804" x2="32.3363" y2="30.6224" gradientUnits="userSpaceOnUse">
<stop stop-color="white" stop-opacity="0.25"/>
<stop offset="1" stop-color="white" stop-opacity="0"/>
</linearGradient>
</defs>
</svg>
