<svg width="52" height="46" viewBox="0 0 52 46" fill="none" xmlns="http://www.w3.org/2000/svg">
<path d="M27.0339 30.7194C26.9349 30.7793 26.823 30.8155 26.7071 30.8213L22.9749 31.0102C21.9156 31.0633 21.0044 30.955 20.1882 30.6804C18.4022 30.0802 16.9035 28.8295 15.9691 27.1568L12.8917 21.6525C12.5364 21.0173 12.6161 20.2061 13.0877 19.6333L17.3133 14.5173C17.5627 14.2108 17.9117 13.9974 18.2931 13.9169L24.6176 12.5623C25.325 12.4096 26.0395 12.735 26.3935 13.3699L29.4731 18.8782C30.407 20.548 30.7156 22.5275 30.3431 24.4521C30.1721 25.335 29.8157 26.2202 29.2547 27.1583L27.2776 30.4707C27.2165 30.5741 27.1324 30.6588 27.0339 30.7194" fill="#5282FF"/>
<g filter="url(#filter0_f_191_14027)">
<path d="M25.3837 27.439C25.3166 27.4796 25.2418 27.5062 25.1655 27.5143L22.7079 27.7759C22.0104 27.8498 21.4159 27.8189 20.8897 27.6822C19.7382 27.3837 18.7984 26.6747 18.2443 25.6846L16.4191 22.4269C16.2083 22.051 16.2894 21.55 16.6195 21.1801L19.5762 17.8756C19.7509 17.6778 19.9877 17.5332 20.241 17.4689L24.4424 16.3907C24.9123 16.2695 25.3699 16.4413 25.5798 16.817L27.4064 20.0772C27.9603 21.0654 28.0926 22.2681 27.7796 23.4637C27.6359 24.0122 27.3704 24.5693 26.9686 25.1669L25.5526 27.2769C25.5088 27.3427 25.4505 27.3979 25.3837 27.439" fill="#5282FF" fill-opacity="0.5"/>
</g>
<mask id="path-3-outside-1_191_14027" maskUnits="userSpaceOnUse" x="17.4639" y="12.1083" width="27.6121" height="31.6654" fill="black">
<rect fill="white" x="17.4639" y="12.1083" width="27.6121" height="31.6654"/>
<path d="M29.1387 40.2898C28.9875 40.2646 28.8414 40.2035 28.7154 40.1077L24.6539 37.0194C23.5015 36.1423 22.6323 35.2287 21.9946 34.2267C20.5986 32.0352 20.0195 29.4239 20.3666 26.8729L21.5059 18.4762C21.6372 17.5071 22.364 16.7386 23.3126 16.5615L31.7984 14.9912C32.3028 14.8937 32.8378 14.9802 33.3014 15.2325L41.0045 19.3965C41.867 19.8612 42.3577 20.826 42.2254 21.7937L41.0852 30.1966C40.7398 32.7441 39.4937 35.0616 37.577 36.7232C36.6976 37.4853 35.6222 38.0866 34.2902 38.5628L29.5913 40.2471C29.4454 40.3003 29.29 40.3137 29.1387 40.2898"/>
</mask>
<path d="M29.1387 40.2898C28.9875 40.2646 28.8414 40.2035 28.7154 40.1077L24.6539 37.0194C23.5015 36.1423 22.6323 35.2287 21.9946 34.2267C20.5986 32.0352 20.0195 29.4239 20.3666 26.8729L21.5059 18.4762C21.6372 17.5071 22.364 16.7386 23.3126 16.5615L31.7984 14.9912C32.3028 14.8937 32.8378 14.9802 33.3014 15.2325L41.0045 19.3965C41.867 19.8612 42.3577 20.826 42.2254 21.7937L41.0852 30.1966C40.7398 32.7441 39.4937 35.0616 37.577 36.7232C36.6976 37.4853 35.6222 38.0866 34.2902 38.5628L29.5913 40.2471C29.4454 40.3003 29.29 40.3137 29.1387 40.2898" fill="#779CFF"/>
<path d="M28.9981 41.2799C29.5429 41.3706 30.0475 41.0009 30.1252 40.454C30.2028 39.9072 29.8241 39.3904 29.2792 39.2997L28.9981 41.2799ZM28.7154 40.1077L29.3042 39.3117L29.3041 39.3116L28.7154 40.1077ZM24.6539 37.0194L24.0648 37.8151L24.0651 37.8154L24.6539 37.0194ZM21.9946 34.2267L22.8299 33.6988L22.8297 33.6985L21.9946 34.2267ZM20.3666 26.8729L21.3539 27.0314L21.3539 27.031L20.3666 26.8729ZM21.5059 18.4762L22.4933 18.6343L22.4933 18.6341L21.5059 18.4762ZM23.3126 16.5615L23.111 15.5742L23.1095 15.5745L23.3126 16.5615ZM31.7984 14.9912L32 15.9785L32.0075 15.977L31.7984 14.9912ZM33.3014 15.2325L32.8434 16.1131L32.8459 16.1145L33.3014 15.2325ZM41.0045 19.3965L40.549 20.2785L40.5503 20.2792L41.0045 19.3965ZM42.2254 21.7937L41.2382 21.6345L41.238 21.6355L42.2254 21.7937ZM41.0852 30.1966L40.0978 30.0385L40.0978 30.0386L41.0852 30.1966ZM37.577 36.7232L38.2368 37.4904L38.2369 37.4903L37.577 36.7232ZM34.2902 38.5628L33.938 37.616L33.9372 37.6163L34.2902 38.5628ZM29.5913 40.2471L29.2383 39.3007L29.2339 39.3023L29.5913 40.2471ZM29.2712 39.2983C28.7257 39.2121 28.2242 39.5861 28.151 40.1336C28.0779 40.6812 28.4607 41.195 29.0061 41.2812L29.2712 39.2983ZM29.2792 39.2997C29.2833 39.3003 29.2925 39.3028 29.3042 39.3117L28.1266 40.9036C28.3903 41.1042 28.6917 41.2289 28.9981 41.2799L29.2792 39.2997ZM29.3041 39.3116L25.2426 36.2234L24.0651 37.8154L28.1267 40.9037L29.3041 39.3116ZM25.2429 36.2236C24.1673 35.405 23.3894 34.578 22.8299 33.6988L21.1592 34.7546C21.8752 35.8794 22.8357 36.8797 24.0648 37.8151L25.2429 36.2236ZM22.8297 33.6985C21.5643 31.7121 21.0391 29.3446 21.3539 27.0314L19.3793 26.7144C18.9998 29.5032 19.6328 32.3583 21.1595 34.7549L22.8297 33.6985ZM21.3539 27.031L22.4933 18.6343L20.5186 18.3181L19.3792 26.7148L21.3539 27.031ZM22.4933 18.6341C22.5679 18.0834 22.9818 17.6482 23.5157 17.5485L23.1095 15.5745C21.7463 15.829 20.7065 16.9308 20.5186 18.3183L22.4933 18.6341ZM23.5142 17.5488L32 15.9785L31.5968 14.0039L23.111 15.5742L23.5142 17.5488ZM32.0075 15.977C32.2818 15.924 32.5813 15.9705 32.8434 16.1131L33.7595 14.3519C33.0943 13.99 32.3239 13.8634 31.5892 14.0053L32.0075 15.977ZM32.8459 16.1145L40.549 20.2785L41.46 18.5146L33.757 14.3506L32.8459 16.1145ZM40.5503 20.2792C41.033 20.5393 41.3134 21.0846 41.2382 21.6345L43.2126 21.9528C43.4021 20.5674 42.7009 19.183 41.4587 18.5139L40.5503 20.2792ZM41.238 21.6355L40.0978 30.0385L42.0725 30.3547L43.2127 21.9518L41.238 21.6355ZM40.0978 30.0386C39.7847 32.3486 38.6546 34.4499 36.9171 35.9562L38.2369 37.4903C40.3327 35.6733 41.695 33.1396 42.0725 30.3546L40.0978 30.0386ZM36.9173 35.9561C36.1456 36.6248 35.1809 37.1717 33.938 37.616L34.6424 39.5095C36.0634 39.0015 37.2496 38.3458 38.2368 37.4904L36.9173 35.9561ZM33.9372 37.6163L29.2383 39.3007L29.9443 41.1936L34.6432 39.5092L33.9372 37.6163ZM29.2339 39.3023C29.2474 39.2974 29.2608 39.2967 29.2712 39.2983L29.0061 41.2812C29.3192 41.3307 29.6434 41.3031 29.9487 41.192L29.2339 39.3023Z" fill="url(#paint0_linear_191_14027)" mask="url(#path-3-outside-1_191_14027)"/>
<g filter="url(#filter1_bd_191_14027)">
<path d="M29.5832 30.4142C29.3476 30.3762 29.1246 30.2493 28.9688 30.0386L26.9644 27.3259C26.6552 26.9049 26.7347 26.3183 27.1431 26.0143C27.5517 25.7089 28.1347 25.8022 28.4453 26.2221L29.8877 28.1731L34.5836 24.6697C34.9934 24.3646 35.5763 24.4578 35.8857 24.8776C36.1962 25.2988 36.1164 25.8866 35.7082 26.1894L30.271 30.2464C30.066 30.3996 29.8188 30.4521 29.5832 30.4142Z" fill="white"/>
<path d="M27.2035 26.0954L27.2037 26.0953C27.5684 25.8228 28.0885 25.906 28.3658 26.2809C28.3658 26.2809 28.3659 26.2809 28.3659 26.2809L29.8082 28.2318L29.8686 28.3135L29.9482 28.2542L34.644 24.7509C35.0101 24.4783 35.5302 24.5618 35.8062 24.9362C36.0838 25.3128 36.0121 25.838 35.6479 26.1081L35.6477 26.1083L30.2105 30.1653L30.2104 30.1654C30.0273 30.3022 29.807 30.3489 29.5967 30.3151C29.3861 30.2812 29.1873 30.1679 29.0482 29.9798L27.044 27.2674C27.044 27.2674 27.0439 27.2673 27.0439 27.2672C26.7676 26.8909 26.839 26.3669 27.2035 26.0954Z" stroke="url(#paint1_linear_191_14027)" stroke-opacity="0.5" stroke-width="0.2"/>
</g>
<defs>
<filter id="filter0_f_191_14027" x="0.302734" y="0.352539" width="43.6426" height="43.4629" filterUnits="userSpaceOnUse" color-interpolation-filters="sRGB">
<feFlood flood-opacity="0" result="BackgroundImageFix"/>
<feBlend mode="normal" in="SourceGraphic" in2="BackgroundImageFix" result="shape"/>
<feGaussianBlur stdDeviation="8" result="effect1_foregroundBlur_191_14027"/>
</filter>
<filter id="filter1_bd_191_14027" x="11.7754" y="9.49023" width="39.2988" height="35.9355" filterUnits="userSpaceOnUse" color-interpolation-filters="sRGB">
<feFlood flood-opacity="0" result="BackgroundImageFix"/>
<feGaussianBlur in="BackgroundImageFix" stdDeviation="7.5"/>
<feComposite in2="SourceAlpha" operator="in" result="effect1_backgroundBlur_191_14027"/>
<feColorMatrix in="SourceAlpha" type="matrix" values="0 0 0 0 0 0 0 0 0 0 0 0 0 0 0 0 0 0 127 0" result="hardAlpha"/>
<feOffset dx="5" dy="5"/>
<feGaussianBlur stdDeviation="5"/>
<feColorMatrix type="matrix" values="0 0 0 0 0.454902 0 0 0 0 0.870588 0 0 0 0 0.376471 0 0 0 0.5 0"/>
<feBlend mode="normal" in2="effect1_backgroundBlur_191_14027" result="effect2_dropShadow_191_14027"/>
<feBlend mode="normal" in="SourceGraphic" in2="effect2_dropShadow_191_14027" result="shape"/>
</filter>
<linearGradient id="paint0_linear_191_14027" x1="25.1314" y1="16.7581" x2="39.1658" y2="36.3318" gradientUnits="userSpaceOnUse">
<stop stop-color="white" stop-opacity="0.25"/>
<stop offset="1" stop-color="white" stop-opacity="0"/>
</linearGradient>
<linearGradient id="paint1_linear_191_14027" x1="27.9172" y1="25.5787" x2="35.5122" y2="26.7146" gradientUnits="userSpaceOnUse">
<stop stop-color="white"/>
<stop offset="1" stop-color="white" stop-opacity="0"/>
</linearGradient>
</defs>
</svg>
