<svg width="44" height="45" viewBox="0 0 44 45" fill="none" xmlns="http://www.w3.org/2000/svg">
<g filter="url(#filter0_b_191_14124)">
<path d="M25.339 10.6126L14.7787 13.4422C10.9304 14.4734 9.33418 17.2378 10.3652 21.0857L13.1919 31.635C14.2229 35.4829 16.9875 37.0789 20.8358 36.0477L31.3961 33.2181C35.2444 32.1869 36.8305 29.4252 35.7995 25.5773L32.9728 15.0281C31.9418 11.1801 29.1873 9.58147 25.339 10.6126Z" fill="#5282FF"/>
</g>
<g opacity="0.5" filter="url(#filter1_f_191_14124)">
<path d="M30.5417 24.4372L28.624 17.173C27.9284 14.5381 26.1875 13.3566 23.8984 13.9609L16.1454 16.0076C13.8188 16.6218 12.9178 18.5007 13.6134 21.1357L15.5311 28.3999C16.238 31.0773 17.9374 32.2234 20.2641 31.6091L28.0171 29.5624C30.3062 28.9581 31.2486 27.1146 30.5417 24.4372Z" fill="#5282FF"/>
</g>
<g filter="url(#filter2_b_191_14124)">
<mask id="path-3-outside-1_191_14124" maskUnits="userSpaceOnUse" x="16.3477" y="14.5898" width="26" height="26" fill="black">
<rect fill="white" x="16.3477" y="14.5898" width="26" height="26"/>
<path d="M34.5202 15.5898H23.5884C19.6047 15.5898 17.3477 17.8469 17.3477 21.8306V32.752C17.3477 36.7357 19.6047 38.9927 23.5884 38.9927H34.5202C38.5039 38.9927 40.7506 36.7357 40.7506 32.752V21.8306C40.7506 17.8469 38.5039 15.5898 34.5202 15.5898"/>
</mask>
<path d="M34.5202 15.5898H23.5884C19.6047 15.5898 17.3477 17.8469 17.3477 21.8306V32.752C17.3477 36.7357 19.6047 38.9927 23.5884 38.9927H34.5202C38.5039 38.9927 40.7506 36.7357 40.7506 32.752V21.8306C40.7506 17.8469 38.5039 15.5898 34.5202 15.5898" fill="#95B2FF"/>
<path d="M34.5202 16.5898C35.0725 16.5898 35.5202 16.1421 35.5202 15.5898C35.5202 15.0376 35.0725 14.5898 34.5202 14.5898V16.5898ZM34.5202 14.5898C33.9679 14.5898 33.5202 15.0376 33.5202 15.5898C33.5202 16.1421 33.9679 16.5898 34.5202 16.5898V14.5898ZM34.5202 14.5898H23.5884V16.5898H34.5202V14.5898ZM23.5884 14.5898C21.4107 14.5898 19.5663 15.21 18.2671 16.5092C16.9678 17.8085 16.3477 19.6529 16.3477 21.8306H18.3477C18.3477 20.0247 18.8561 18.7487 19.6813 17.9235C20.5065 17.0982 21.7825 16.5898 23.5884 16.5898V14.5898ZM16.3477 21.8306V32.752H18.3477V21.8306H16.3477ZM16.3477 32.752C16.3477 34.9297 16.9678 36.7741 18.2671 38.0734C19.5663 39.3726 21.4107 39.9927 23.5884 39.9927V37.9927C21.7825 37.9927 20.5065 37.4844 19.6813 36.6591C18.8561 35.8339 18.3477 34.5579 18.3477 32.752H16.3477ZM23.5884 39.9927H34.5202V37.9927H23.5884V39.9927ZM34.5202 39.9927C36.698 39.9927 38.5404 39.3725 39.8372 38.0725C41.1337 36.7728 41.7506 34.9285 41.7506 32.752H39.7506C39.7506 34.5592 39.2441 35.8352 38.4213 36.66C37.5989 37.4844 36.3261 37.9927 34.5202 37.9927V39.9927ZM41.7506 32.752V21.8306H39.7506V32.752H41.7506ZM41.7506 21.8306C41.7506 19.6541 41.1337 17.8098 39.8372 16.5101C38.5404 15.2101 36.698 14.5898 34.5202 14.5898V16.5898C36.3261 16.5898 37.5989 17.0982 38.4213 17.9226C39.2441 18.7474 39.7506 20.0234 39.7506 21.8306H41.7506Z" fill="url(#paint0_linear_191_14124)" mask="url(#path-3-outside-1_191_14124)"/>
</g>
<g filter="url(#filter3_b_191_14124)">
<mask id="path-5-inside-2_191_14124" fill="white">
<path fill-rule="evenodd" clip-rule="evenodd" d="M29.0901 20.375C28.5597 20.375 28.1228 20.8119 28.1228 21.3527V33.231C28.1228 33.7615 28.5597 34.1983 29.0901 34.1983C29.631 34.1983 30.0679 33.7615 30.0679 33.231V21.3527C30.0679 20.8119 29.631 20.375 29.0901 20.375ZM23.6294 24.2134C23.099 24.2134 22.6621 24.6503 22.6621 25.1911V33.2313C22.6621 33.7618 23.099 34.1987 23.6294 34.1987C24.1703 34.1987 24.6072 33.7618 24.6072 33.2313V25.1911C24.6072 24.6503 24.1703 24.2134 23.6294 24.2134ZM33.5 29.4348C33.5 28.8939 33.9369 28.457 34.4777 28.457C35.0082 28.457 35.445 28.8939 35.445 29.4348V33.2312C35.445 33.7617 35.0082 34.1985 34.4673 34.1985C33.9369 34.1985 33.5 33.7617 33.5 33.2312V29.4348Z"/>
</mask>
<path fill-rule="evenodd" clip-rule="evenodd" d="M29.0901 20.375C28.5597 20.375 28.1228 20.8119 28.1228 21.3527V33.231C28.1228 33.7615 28.5597 34.1983 29.0901 34.1983C29.631 34.1983 30.0679 33.7615 30.0679 33.231V21.3527C30.0679 20.8119 29.631 20.375 29.0901 20.375ZM23.6294 24.2134C23.099 24.2134 22.6621 24.6503 22.6621 25.1911V33.2313C22.6621 33.7618 23.099 34.1987 23.6294 34.1987C24.1703 34.1987 24.6072 33.7618 24.6072 33.2313V25.1911C24.6072 24.6503 24.1703 24.2134 23.6294 24.2134ZM33.5 29.4348C33.5 28.8939 33.9369 28.457 34.4777 28.457C35.0082 28.457 35.445 28.8939 35.445 29.4348V33.2312C35.445 33.7617 35.0082 34.1985 34.4673 34.1985C33.9369 34.1985 33.5 33.7617 33.5 33.2312V29.4348Z" fill="url(#paint1_linear_191_14124)"/>
<path d="M28.5228 21.3527C28.5228 21.03 28.7834 20.775 29.0901 20.775V19.975C28.336 19.975 27.7228 20.5937 27.7228 21.3527H28.5228ZM28.5228 33.231V21.3527H27.7228V33.231H28.5228ZM29.0901 33.7983C28.7806 33.7983 28.5228 33.5405 28.5228 33.231H27.7228C27.7228 33.9824 28.3388 34.5983 29.0901 34.5983V33.7983ZM29.6679 33.231C29.6679 33.5378 29.4129 33.7983 29.0901 33.7983V34.5983C29.8491 34.5983 30.4679 33.9852 30.4679 33.231H29.6679ZM29.6679 21.3527V33.231H30.4679V21.3527H29.6679ZM29.0901 20.775C29.4101 20.775 29.6679 21.0328 29.6679 21.3527H30.4679C30.4679 20.5909 29.8519 19.975 29.0901 19.975V20.775ZM23.0621 25.1911C23.0621 24.8684 23.3227 24.6134 23.6294 24.6134V23.8134C22.8753 23.8134 22.2621 24.4321 22.2621 25.1911H23.0621ZM23.0621 33.2313V25.1911H22.2621V33.2313H23.0621ZM23.6294 33.7987C23.3199 33.7987 23.0621 33.5409 23.0621 33.2313H22.2621C22.2621 33.9827 22.878 34.5987 23.6294 34.5987V33.7987ZM24.2072 33.2313C24.2072 33.5381 23.9522 33.7987 23.6294 33.7987V34.5987C24.3884 34.5987 25.0072 33.9855 25.0072 33.2313H24.2072ZM24.2072 25.1911V33.2313H25.0072V25.1911H24.2072ZM23.6294 24.6134C23.9494 24.6134 24.2072 24.8712 24.2072 25.1911H25.0072C25.0072 24.4294 24.3912 23.8134 23.6294 23.8134V24.6134ZM34.4777 28.057C33.7159 28.057 33.1 28.673 33.1 29.4348H33.9C33.9 29.1148 34.1578 28.857 34.4777 28.857V28.057ZM35.845 29.4348C35.845 28.6758 35.2319 28.057 34.4777 28.057V28.857C34.7845 28.857 35.045 29.112 35.045 29.4348H35.845ZM35.845 33.2312V29.4348H35.045V33.2312H35.845ZM34.4673 34.5985C35.2263 34.5985 35.845 33.9854 35.845 33.2312H35.045C35.045 33.538 34.7901 33.7985 34.4673 33.7985V34.5985ZM33.1 33.2312C33.1 33.9826 33.7159 34.5985 34.4673 34.5985V33.7985C34.1578 33.7985 33.9 33.5408 33.9 33.2312H33.1ZM33.1 29.4348V33.2312H33.9V29.4348H33.1Z" fill="url(#paint2_linear_191_14124)" mask="url(#path-5-inside-2_191_14124)"/>
</g>
<defs>
<filter id="filter0_b_191_14124" x="-2.94141" y="-2.69336" width="52.0488" height="52.0479" filterUnits="userSpaceOnUse" color-interpolation-filters="sRGB">
<feFlood flood-opacity="0" result="BackgroundImageFix"/>
<feGaussianBlur in="BackgroundImageFix" stdDeviation="6.5"/>
<feComposite in2="SourceAlpha" operator="in" result="effect1_backgroundBlur_191_14124"/>
<feBlend mode="normal" in="SourceGraphic" in2="effect1_backgroundBlur_191_14124" result="shape"/>
</filter>
<filter id="filter1_f_191_14124" x="0.384766" y="0.805664" width="43.3867" height="43.9658" filterUnits="userSpaceOnUse" color-interpolation-filters="sRGB">
<feFlood flood-opacity="0" result="BackgroundImageFix"/>
<feBlend mode="normal" in="SourceGraphic" in2="BackgroundImageFix" result="shape"/>
<feGaussianBlur stdDeviation="6.5" result="effect1_foregroundBlur_191_14124"/>
</filter>
<filter id="filter2_b_191_14124" x="1.34766" y="-0.410156" width="55.4023" height="55.4033" filterUnits="userSpaceOnUse" color-interpolation-filters="sRGB">
<feFlood flood-opacity="0" result="BackgroundImageFix"/>
<feGaussianBlur in="BackgroundImageFix" stdDeviation="7.5"/>
<feComposite in2="SourceAlpha" operator="in" result="effect1_backgroundBlur_191_14124"/>
<feBlend mode="normal" in="SourceGraphic" in2="effect1_backgroundBlur_191_14124" result="shape"/>
</filter>
<filter id="filter3_b_191_14124" x="7.66211" y="5.375" width="42.7832" height="43.8232" filterUnits="userSpaceOnUse" color-interpolation-filters="sRGB">
<feFlood flood-opacity="0" result="BackgroundImageFix"/>
<feGaussianBlur in="BackgroundImageFix" stdDeviation="7.5"/>
<feComposite in2="SourceAlpha" operator="in" result="effect1_backgroundBlur_191_14124"/>
<feBlend mode="normal" in="SourceGraphic" in2="effect1_backgroundBlur_191_14124" result="shape"/>
</filter>
<linearGradient id="paint0_linear_191_14124" x1="21.073" y1="18.3163" x2="36.0016" y2="36.8057" gradientUnits="userSpaceOnUse">
<stop stop-color="white" stop-opacity="0.25"/>
<stop offset="1" stop-color="white" stop-opacity="0"/>
</linearGradient>
<linearGradient id="paint1_linear_191_14124" x1="19.3533" y1="30.6352" x2="25.3416" y2="42.9371" gradientUnits="userSpaceOnUse">
<stop stop-color="white"/>
<stop offset="1" stop-color="white" stop-opacity="0.2"/>
</linearGradient>
<linearGradient id="paint2_linear_191_14124" x1="24.6969" y1="21.9855" x2="33.6351" y2="32.2222" gradientUnits="userSpaceOnUse">
<stop stop-color="white" stop-opacity="0.25"/>
<stop offset="1" stop-color="white" stop-opacity="0"/>
</linearGradient>
</defs>
</svg>
