<svg width="41" height="49" viewBox="0 0 41 49" fill="none" xmlns="http://www.w3.org/2000/svg">
<g filter="url(#filter0_b_191_14152)">
<path fill-rule="evenodd" clip-rule="evenodd" d="M10.7848 18.6797C10.7848 22.1732 13.6435 24.9727 17.2108 24.9727C20.7767 24.9727 23.6367 22.1732 23.6367 18.6797C23.6367 15.1863 20.7767 12.3867 17.2108 12.3867C13.6435 12.3867 10.7848 15.1863 10.7848 18.6797ZM26.9219 32.0979C26.9219 28.8641 22.4483 28.055 17.2105 28.055C11.9444 28.055 7.49922 28.8919 7.49922 32.1283C7.49922 35.3622 11.9728 36.1713 17.2105 36.1713C22.4767 36.1713 26.9219 35.3343 26.9219 32.0979Z" fill="#5282FF"/>
</g>
<g filter="url(#filter1_f_191_14152)">
<path d="M19.3187 30.1289C22.5167 30.1289 25.248 30.6663 25.248 32.814C25.248 34.9633 22.534 35.5192 19.3187 35.5192C16.1208 35.5192 13.3894 34.9818 13.3894 32.8341C13.3894 30.6848 16.1034 30.1289 19.3187 30.1289" fill="#5282FF" fill-opacity="0.5"/>
</g>
<g filter="url(#filter2_f_191_14152)">
<path d="M18.7815 21.8639C16.9861 21.8639 15.5473 20.4251 15.5473 18.6297C15.5473 16.8343 16.9861 15.3955 18.7815 15.3955C20.5762 15.3955 22.0156 16.8343 22.0156 18.6297C22.0156 20.4251 20.5762 21.8639 18.7815 21.8639" fill="#5282FF" fill-opacity="0.5"/>
</g>
<g filter="url(#filter3_b_191_14152)">
<mask id="path-4-outside-1_191_14152" maskUnits="userSpaceOnUse" x="12.5" y="9" width="28" height="34" fill="black">
<rect fill="white" x="12.5" y="9" width="28" height="34"/>
<path fill-rule="evenodd" clip-rule="evenodd" d="M18.337 18.2529C18.337 22.8344 22.086 26.5058 26.7643 26.5058C31.4408 26.5058 35.1915 22.8344 35.1915 18.2529C35.1915 13.6715 31.4408 10 26.7643 10C22.086 10 18.337 13.6715 18.337 18.2529ZM39.5 35.8507C39.5 31.6097 33.6331 30.5486 26.7641 30.5486C19.8579 30.5486 14.0283 31.6462 14.0283 35.8906C14.0283 40.1316 19.8952 41.1927 26.7641 41.1927C33.6704 41.1927 39.5 40.0951 39.5 35.8507Z"/>
</mask>
<path fill-rule="evenodd" clip-rule="evenodd" d="M18.337 18.2529C18.337 22.8344 22.086 26.5058 26.7643 26.5058C31.4408 26.5058 35.1915 22.8344 35.1915 18.2529C35.1915 13.6715 31.4408 10 26.7643 10C22.086 10 18.337 13.6715 18.337 18.2529ZM39.5 35.8507C39.5 31.6097 33.6331 30.5486 26.7641 30.5486C19.8579 30.5486 14.0283 31.6462 14.0283 35.8906C14.0283 40.1316 19.8952 41.1927 26.7641 41.1927C33.6704 41.1927 39.5 40.0951 39.5 35.8507Z" fill="#95B2FF"/>
<path d="M26.7643 27.5058C21.5536 27.5058 17.337 23.4062 17.337 18.2529H19.337C19.337 22.2625 22.6185 25.5058 26.7643 25.5058V27.5058ZM36.1915 18.2529C36.1915 23.4064 31.9731 27.5058 26.7643 27.5058V25.5058C30.9085 25.5058 34.1915 22.2623 34.1915 18.2529H36.1915ZM26.7643 9C31.9731 9 36.1915 13.0994 36.1915 18.2529H34.1915C34.1915 14.2435 30.9085 11 26.7643 11V9ZM17.337 18.2529C17.337 13.0996 21.5536 9 26.7643 9V11C22.6185 11 19.337 14.2434 19.337 18.2529H17.337ZM26.7641 29.5486C30.2205 29.5486 33.5426 29.8117 36.0316 30.6631C37.2818 31.0907 38.3945 31.6906 39.2029 32.5464C40.0338 33.426 40.5 34.5325 40.5 35.8507H38.5C38.5 35.0484 38.2328 34.4319 37.749 33.9198C37.2427 33.3838 36.4594 32.9232 35.3843 32.5554C33.2226 31.816 30.1767 31.5486 26.7641 31.5486V29.5486ZM13.0283 35.8906C13.0283 34.5739 13.4904 33.4658 14.3167 32.5822C15.1212 31.7221 16.2299 31.1163 17.4787 30.6832C19.9643 29.821 23.2875 29.5486 26.7641 29.5486V31.5486C23.3345 31.5486 20.2898 31.825 18.1341 32.5727C17.0622 32.9445 16.2819 33.409 15.7774 33.9484C15.2949 34.4643 15.0283 35.0851 15.0283 35.8906H13.0283ZM26.7641 42.1927C23.3077 42.1927 19.9857 41.9296 17.4967 41.0782C16.2465 40.6505 15.1337 40.0507 14.3254 39.1949C13.4944 38.3153 13.0283 37.2088 13.0283 35.8906H15.0283C15.0283 36.6929 15.2955 37.3094 15.7793 37.8215C16.2856 38.3575 17.0689 38.8181 18.144 39.1858C20.3057 39.9253 23.3516 40.1927 26.7641 40.1927V42.1927ZM40.5 35.8507C40.5 37.1674 40.0379 38.2755 39.2116 39.159C38.4071 40.0192 37.2984 40.625 36.0496 41.0581C33.564 41.9203 30.2408 42.1927 26.7641 42.1927V40.1927C30.1938 40.1927 33.2385 39.9163 35.3942 39.1686C36.4661 38.7968 37.2464 38.3323 37.7509 37.7929C38.2334 37.277 38.5 36.6562 38.5 35.8507H40.5Z" fill="url(#paint0_linear_191_14152)" mask="url(#path-4-outside-1_191_14152)"/>
</g>
<defs>
<filter id="filter0_b_191_14152" x="-5.5" y="-0.613281" width="45.4219" height="49.7842" filterUnits="userSpaceOnUse" color-interpolation-filters="sRGB">
<feFlood flood-opacity="0" result="BackgroundImageFix"/>
<feGaussianBlur in="BackgroundImageFix" stdDeviation="6.5"/>
<feComposite in2="SourceAlpha" operator="in" result="effect1_backgroundBlur_191_14152"/>
<feBlend mode="normal" in="SourceGraphic" in2="effect1_backgroundBlur_191_14152" result="shape"/>
</filter>
<filter id="filter1_f_191_14152" x="0.388672" y="17.1289" width="37.8594" height="31.3906" filterUnits="userSpaceOnUse" color-interpolation-filters="sRGB">
<feFlood flood-opacity="0" result="BackgroundImageFix"/>
<feBlend mode="normal" in="SourceGraphic" in2="BackgroundImageFix" result="shape"/>
<feGaussianBlur stdDeviation="6.5" result="effect1_foregroundBlur_191_14152"/>
</filter>
<filter id="filter2_f_191_14152" x="0.546875" y="0.395508" width="36.4688" height="36.4688" filterUnits="userSpaceOnUse" color-interpolation-filters="sRGB">
<feFlood flood-opacity="0" result="BackgroundImageFix"/>
<feBlend mode="normal" in="SourceGraphic" in2="BackgroundImageFix" result="shape"/>
<feGaussianBlur stdDeviation="7.5" result="effect1_foregroundBlur_191_14152"/>
</filter>
<filter id="filter3_b_191_14152" x="-1.97266" y="-6" width="57.4727" height="63.1924" filterUnits="userSpaceOnUse" color-interpolation-filters="sRGB">
<feFlood flood-opacity="0" result="BackgroundImageFix"/>
<feGaussianBlur in="BackgroundImageFix" stdDeviation="7.5"/>
<feComposite in2="SourceAlpha" operator="in" result="effect1_backgroundBlur_191_14152"/>
<feBlend mode="normal" in="SourceGraphic" in2="effect1_backgroundBlur_191_14152" result="shape"/>
</filter>
<linearGradient id="paint0_linear_191_14152" x1="35.4453" y1="13.634" x2="15.092" y2="34.2187" gradientUnits="userSpaceOnUse">
<stop stop-color="white" stop-opacity="0.25"/>
<stop offset="1" stop-color="white" stop-opacity="0"/>
</linearGradient>
</defs>
</svg>
