<svg width="48" height="48" viewBox="0 0 48 48" fill="none" xmlns="http://www.w3.org/2000/svg">
<path d="M27.7364 22.8246C27.5957 23.1146 27.6069 23.4558 27.7654 23.7367L30.0177 27.5959C30.2083 27.9231 30.1896 28.3313 29.9704 28.6405C29.7597 28.9551 29.3868 29.1195 29.0124 29.0657L24.5864 28.4816C24.432 28.4598 24.275 28.4752 24.1265 28.5246L23.8989 28.6075C23.8243 28.6481 23.7562 28.7014 23.6998 28.7657L20.6903 32.0705C20.5401 32.2299 20.3438 32.3385 20.1278 32.3801C19.5964 32.4673 19.0921 32.1146 18.9915 31.5853L18.233 27.1816C18.1727 26.8621 17.9611 26.5921 17.6655 26.4572L13.5622 24.6235C13.219 24.4699 12.9961 24.1325 12.9905 23.7569C12.9818 23.3834 13.1806 23.0361 13.5075 22.8551L17.46 20.7286C17.7655 20.5801 17.9739 20.2854 18.0126 19.9479L18.4773 15.5074C18.4904 15.4075 18.5185 15.3098 18.5626 15.2195L18.6168 15.1332C18.6403 15.0751 18.6725 15.0225 18.7122 14.9747L18.7915 14.9078L18.9128 14.797L19.2663 14.6681C19.5939 14.5858 19.9407 14.6734 20.1888 14.9026L23.4202 17.9769C23.6546 18.2025 23.9852 18.2979 24.3035 18.2343L28.6974 17.3186C29.0685 17.2404 29.4519 17.3765 29.6911 17.6698C29.9238 17.9665 29.9636 18.3705 29.7934 18.7074L27.7364 22.8246Z" fill="#5282FF"/>
<g opacity="0.5" filter="url(#filter0_f_191_14136)">
<path d="M23.8681 20.5908C21.9464 20.5908 20.3867 22.1508 20.3867 24.0722C20.3867 25.9943 21.9464 27.5536 23.8681 27.5536C25.7933 27.5536 27.3495 25.9943 27.3495 24.0722C27.3495 22.1508 25.7933 20.5908 23.8681 20.5908V20.5908Z" fill="#5282FF"/>
</g>
<g filter="url(#filter1_b_191_14136)">
<path d="M37.985 22.1751C37.6305 22.3798 37.3991 22.7465 37.3655 23.1547L36.9832 28.8168C36.9504 29.2966 36.64 29.7124 36.1891 29.8812C35.7435 30.0618 35.2343 29.969 34.879 29.6456L30.6423 25.8775C30.4955 25.7447 30.3194 25.6489 30.1282 25.595L29.8298 25.5201C29.7225 25.5095 29.6129 25.517 29.5077 25.5444L23.989 26.8741C23.7174 26.9346 23.4336 26.9089 23.1769 26.7988C22.5562 26.5117 22.2774 25.7816 22.5488 25.1534L24.8895 19.9835C25.0537 19.6046 25.0237 19.1699 24.8091 18.8175L21.8021 13.9657C21.5507 13.5596 21.5568 13.0462 21.8186 12.6473C22.0756 12.2485 22.5321 12.0249 23.0047 12.0676L28.6753 12.6487C29.1022 12.7103 29.5313 12.549 29.8125 12.2217L33.4654 7.88473C33.5503 7.78903 33.6495 7.70628 33.7602 7.64282L33.8786 7.59066C33.9448 7.54642 34.0161 7.51402 34.0918 7.49209L34.2229 7.4782L34.4294 7.44817L34.8929 7.56463C35.296 7.71157 35.5981 8.05082 35.6956 8.46855L36.9019 14.0031C36.9876 14.4074 37.2672 14.7433 37.6472 14.9031L42.9189 17.0716C43.3647 17.2539 43.6708 17.6702 43.7132 18.149C43.7465 18.6266 43.5004 19.0798 43.0814 19.3127L37.985 22.1751Z" fill="#95B2FF"/>
<path d="M37.4821 28.8509L37.4821 28.8504L37.8641 23.1925C37.8851 22.9492 38.0231 22.7314 38.2328 22.6094L43.3243 19.7497C43.3247 19.7495 43.3251 19.7493 43.3254 19.7491C43.913 19.4219 44.2588 18.7855 44.212 18.1142L44.2121 18.1142L44.2113 18.1049C44.1524 17.4403 43.7276 16.8623 43.1086 16.609C43.1084 16.6089 43.1083 16.6089 43.1081 16.6088L37.841 14.4423C37.8405 14.442 37.8399 14.4418 37.8394 14.4416C37.6102 14.3445 37.4424 14.1417 37.3911 13.8994L37.3911 13.8994L37.3905 13.8966L36.1842 8.36207L36.1842 8.36206L36.1825 8.3549C36.0465 7.77183 35.6249 7.29927 35.0641 7.09486C35.0479 7.08896 35.0314 7.0839 35.0147 7.0797L34.5513 6.96324C34.4879 6.94733 34.4221 6.94398 34.3574 6.95338L34.1606 6.98201L34.0392 6.99487C34.0099 6.99797 33.981 7.00364 33.9528 7.01182C33.8456 7.04284 33.7412 7.08772 33.6422 7.14847L33.5587 7.18524C33.5426 7.19233 33.5269 7.20026 33.5116 7.209C33.3501 7.30153 33.2093 7.41991 33.0913 7.5529L33.0912 7.55279L33.0829 7.56263L29.4319 11.8975C29.2618 12.0943 29.0033 12.1909 28.7467 12.1538C28.7399 12.1529 28.7331 12.152 28.7263 12.1513L23.0557 11.5702L23.0557 11.5702L23.0497 11.5697C22.3919 11.5102 21.7571 11.8211 21.3994 12.3748C21.0317 12.9365 21.024 13.6587 21.377 14.2289L21.3771 14.2291L24.3829 19.079C24.5116 19.2913 24.53 19.5527 24.4321 19.7814L22.0933 24.9472L22.0932 24.9472L22.0898 24.9551C21.7109 25.8321 22.1 26.8516 22.9671 27.2526L22.967 27.2528L22.9798 27.2583C23.3337 27.4101 23.7245 27.4453 24.0977 27.3621L24.0977 27.3622L24.1061 27.3602L29.6248 26.0305L29.6248 26.0306L29.6337 26.0283C29.6701 26.0188 29.7097 26.0144 29.7506 26.0157L29.9986 26.078C30.1157 26.112 30.2206 26.1703 30.3069 26.2483L30.3101 26.2511L34.5447 30.0175C35.0394 30.4661 35.7479 30.5967 36.3707 30.3471C37.0013 30.1082 37.436 29.5246 37.4821 28.8509Z" stroke="url(#paint0_linear_191_14136)" stroke-linecap="round" stroke-linejoin="round"/>
</g>
<defs>
<filter id="filter0_f_191_14136" x="0.386719" y="0.59082" width="46.9629" height="46.9629" filterUnits="userSpaceOnUse" color-interpolation-filters="sRGB">
<feFlood flood-opacity="0" result="BackgroundImageFix"/>
<feBlend mode="normal" in="SourceGraphic" in2="BackgroundImageFix" result="shape"/>
<feGaussianBlur stdDeviation="10" result="effect1_foregroundBlur_191_14136"/>
</filter>
<filter id="filter1_b_191_14136" x="-3.38281" y="-17.5518" width="72.0996" height="72.5244" filterUnits="userSpaceOnUse" color-interpolation-filters="sRGB">
<feFlood flood-opacity="0" result="BackgroundImageFix"/>
<feGaussianBlur in="BackgroundImageFix" stdDeviation="12"/>
<feComposite in2="SourceAlpha" operator="in" result="effect1_backgroundBlur_191_14136"/>
<feBlend mode="normal" in="SourceGraphic" in2="effect1_backgroundBlur_191_14136" result="shape"/>
</filter>
<linearGradient id="paint0_linear_191_14136" x1="26.6233" y1="8.07744" x2="35.4873" y2="28.5779" gradientUnits="userSpaceOnUse">
<stop stop-color="white" stop-opacity="0.25"/>
<stop offset="1" stop-color="white" stop-opacity="0"/>
</linearGradient>
</defs>
</svg>
