<svg width="44" height="48" viewBox="0 0 44 48" fill="none" xmlns="http://www.w3.org/2000/svg">
<path d="M29.0261 13.6552L20.359 11.3328C17.2152 10.4905 14.8915 11.8408 14.0464 14.9949L11.184 25.6776C10.325 28.8834 11.6732 31.1733 14.817 32.0157L23.4842 34.338C26.6786 35.194 28.9395 33.8712 29.7985 30.6653L32.6609 19.9827C33.5061 16.8285 32.2206 14.5111 29.0261 13.6552Z" fill="#5282FF"/>
<g opacity="0.5" filter="url(#filter0_f_191_14144)">
<path d="M26.7627 16.5802L20.8577 14.9979C18.7158 14.424 17.1327 15.344 16.5569 17.4929L14.6067 24.7711C14.0215 26.9553 14.9401 28.5154 17.082 29.0893L22.987 30.6716C25.1634 31.2547 26.7037 30.3535 27.289 28.1693L29.2392 20.8911C29.815 18.7422 28.9392 17.1633 26.7627 16.5802Z" fill="#5282FF"/>
</g>
<g filter="url(#filter1_b_191_14144)">
<mask id="path-3-outside-1_191_14144" maskUnits="userSpaceOnUse" x="1" y="14.7314" width="27" height="27" fill="black">
<rect fill="white" x="1" y="14.7314" width="27" height="27"/>
<path d="M19.6643 15.7314H8.98442C4.80855 15.7314 2 18.6632 2 23.0238V33.0878C2 37.4361 4.80855 40.3679 8.98442 40.3679H19.6643C23.8402 40.3679 26.6364 37.4361 26.6364 33.0878V23.0238C26.6364 18.6632 23.8402 15.7314 19.6643 15.7314"/>
</mask>
<path d="M19.6643 15.7314H8.98442C4.80855 15.7314 2 18.6632 2 23.0238V33.0878C2 37.4361 4.80855 40.3679 8.98442 40.3679H19.6643C23.8402 40.3679 26.6364 37.4361 26.6364 33.0878V23.0238C26.6364 18.6632 23.8402 15.7314 19.6643 15.7314" fill="#95B2FF"/>
<path d="M19.6643 16.7314C20.2166 16.7314 20.6643 16.2837 20.6643 15.7314C20.6643 15.1792 20.2166 14.7314 19.6643 14.7314V16.7314ZM19.6643 14.7314C19.112 14.7314 18.6643 15.1792 18.6643 15.7314C18.6643 16.2837 19.112 16.7314 19.6643 16.7314V14.7314ZM19.6643 14.7314H8.98442V16.7314H19.6643V14.7314ZM8.98442 14.7314C6.65371 14.7314 4.63657 15.5551 3.20409 17.0507C1.7752 18.5425 1 20.6267 1 23.0238H3C3 21.0603 3.62908 19.4983 4.64843 18.4341C5.6642 17.3736 7.13927 16.7314 8.98442 16.7314V14.7314ZM1 23.0238V33.0878H3V23.0238H1ZM1 33.0878C1 35.4794 1.77565 37.5606 3.20451 39.0506C4.63686 40.5442 6.65375 41.3679 8.98442 41.3679V39.3679C7.13922 39.3679 5.6639 38.7256 4.64801 37.6663C3.62863 36.6033 3 35.0445 3 33.0878H1ZM8.98442 41.3679H19.6643V39.3679H8.98442V41.3679ZM19.6643 41.3679C21.9952 41.3679 24.0095 40.544 25.4389 39.0497C26.8646 37.5593 27.6364 35.4782 27.6364 33.0878H25.6364C25.6364 35.0457 25.0101 36.6047 23.9937 37.6672C22.9811 38.7258 21.5093 39.3679 19.6643 39.3679V41.3679ZM27.6364 33.0878V23.0238H25.6364V33.0878H27.6364ZM27.6364 23.0238C27.6364 20.628 26.8651 18.5438 25.4393 17.0516C24.0098 15.5553 21.9952 14.7314 19.6643 14.7314V16.7314C21.5093 16.7314 22.9808 17.3735 23.9933 18.4332C25.0096 19.497 25.6364 21.0591 25.6364 23.0238H27.6364Z" fill="url(#paint0_linear_191_14144)" mask="url(#path-3-outside-1_191_14144)"/>
</g>
<g filter="url(#filter2_bd_191_14144)">
<mask id="path-5-inside-2_191_14144" fill="white">
<path d="M12.8551 32.0504C12.5792 32.0504 12.3032 31.9457 12.0926 31.735L9.16948 28.8119C8.74819 28.3906 8.74819 27.7082 9.16948 27.2882C9.59076 26.8669 10.272 26.8656 10.6932 27.2869L12.8551 29.4488L17.94 24.3638C18.3613 23.9425 19.0425 23.9425 19.4638 24.3638C19.8851 24.7851 19.8851 25.4675 19.4638 25.8888L13.6176 31.735C13.4069 31.9457 13.131 32.0504 12.8551 32.0504"/>
</mask>
<path d="M12.8551 32.0504C12.5792 32.0504 12.3032 31.9457 12.0926 31.735L9.16948 28.8119C8.74819 28.3906 8.74819 27.7082 9.16948 27.2882C9.59076 26.8669 10.272 26.8656 10.6932 27.2869L12.8551 29.4488L17.94 24.3638C18.3613 23.9425 19.0425 23.9425 19.4638 24.3638C19.8851 24.7851 19.8851 25.4675 19.4638 25.8888L13.6176 31.735C13.4069 31.9457 13.131 32.0504 12.8551 32.0504" fill="url(#paint1_linear_191_14144)"/>
<path d="M9.16948 27.2882L9.31069 27.4298L9.3109 27.4296L9.16948 27.2882ZM12.8551 29.4488L12.7137 29.5902L12.8551 29.7316L12.9965 29.5902L12.8551 29.4488ZM19.4638 25.8888L19.3224 25.7474L19.3224 25.7474L19.4638 25.8888ZM13.6176 31.735L13.759 31.8764L13.759 31.8764L13.6176 31.735ZM12.8551 31.8504C12.6298 31.8504 12.4055 31.7651 12.234 31.5936L11.9512 31.8764C12.201 32.1263 12.5285 32.2504 12.8551 32.2504V31.8504ZM12.234 31.5936L9.3109 28.6705L9.02806 28.9533L11.9512 31.8764L12.234 31.5936ZM9.3109 28.6705C8.96761 28.3272 8.9679 27.7716 9.31069 27.4298L9.02826 27.1465C8.52849 27.6448 8.52878 28.4541 9.02806 28.9533L9.3109 28.6705ZM9.3109 27.4296C9.65437 27.0861 10.2089 27.0855 10.5518 27.4283L10.8347 27.1455C10.335 26.6458 9.52715 26.6476 9.02806 27.1467L9.3109 27.4296ZM10.5518 27.4283L12.7137 29.5902L12.9965 29.3073L10.8347 27.1455L10.5518 27.4283ZM12.9965 29.5902L18.0815 24.5052L17.7986 24.2224L12.7137 29.3073L12.9965 29.5902ZM18.0815 24.5052C18.4246 24.1621 18.9792 24.1621 19.3224 24.5052L19.6052 24.2224C19.1058 23.723 18.298 23.723 17.7986 24.2224L18.0815 24.5052ZM19.3224 24.5052C19.6656 24.8484 19.6656 25.4042 19.3224 25.7474L19.6052 26.0302C20.1046 25.5308 20.1046 24.7218 19.6052 24.2224L19.3224 24.5052ZM19.3224 25.7474L13.4762 31.5936L13.759 31.8764L19.6052 26.0302L19.3224 25.7474ZM13.4762 31.5936C13.3047 31.7651 13.0804 31.8504 12.8551 31.8504V32.2504C13.1816 32.2504 13.5092 32.1263 13.759 31.8764L13.4762 31.5936Z" fill="url(#paint2_linear_191_14144)" fill-opacity="0.5" mask="url(#path-5-inside-2_191_14144)"/>
</g>
<defs>
<filter id="filter0_f_191_14144" x="0.433594" y="0.831055" width="42.9785" height="44.0137" filterUnits="userSpaceOnUse" color-interpolation-filters="sRGB">
<feFlood flood-opacity="0" result="BackgroundImageFix"/>
<feBlend mode="normal" in="SourceGraphic" in2="BackgroundImageFix" result="shape"/>
<feGaussianBlur stdDeviation="7" result="effect1_foregroundBlur_191_14144"/>
</filter>
<filter id="filter1_b_191_14144" x="-23" y="-9.26855" width="74.6367" height="74.6367" filterUnits="userSpaceOnUse" color-interpolation-filters="sRGB">
<feFlood flood-opacity="0" result="BackgroundImageFix"/>
<feGaussianBlur in="BackgroundImageFix" stdDeviation="12"/>
<feComposite in2="SourceAlpha" operator="in" result="effect1_backgroundBlur_191_14144"/>
<feBlend mode="normal" in="SourceGraphic" in2="effect1_backgroundBlur_191_14144" result="shape"/>
</filter>
<filter id="filter2_bd_191_14144" x="-6.14648" y="9.04785" width="40.9258" height="38.0029" filterUnits="userSpaceOnUse" color-interpolation-filters="sRGB">
<feFlood flood-opacity="0" result="BackgroundImageFix"/>
<feGaussianBlur in="BackgroundImageFix" stdDeviation="7.5"/>
<feComposite in2="SourceAlpha" operator="in" result="effect1_backgroundBlur_191_14144"/>
<feColorMatrix in="SourceAlpha" type="matrix" values="0 0 0 0 0 0 0 0 0 0 0 0 0 0 0 0 0 0 127 0" result="hardAlpha"/>
<feOffset dx="5" dy="5"/>
<feGaussianBlur stdDeviation="5"/>
<feColorMatrix type="matrix" values="0 0 0 0 0.454902 0 0 0 0 0.870588 0 0 0 0 0.376471 0 0 0 0.5 0"/>
<feBlend mode="normal" in2="effect1_backgroundBlur_191_14144" result="effect2_dropShadow_191_14144"/>
<feBlend mode="normal" in="SourceGraphic" in2="effect2_dropShadow_191_14144" result="shape"/>
</filter>
<linearGradient id="paint0_linear_191_14144" x1="5.92171" y1="18.6016" x2="21.6371" y2="38.0655" gradientUnits="userSpaceOnUse">
<stop stop-color="white" stop-opacity="0.25"/>
<stop offset="1" stop-color="white" stop-opacity="0"/>
</linearGradient>
<linearGradient id="paint1_linear_191_14144" x1="19.0051" y1="25.4929" x2="6.84546" y2="26.0343" gradientUnits="userSpaceOnUse">
<stop stop-color="white"/>
<stop offset="1" stop-color="white"/>
</linearGradient>
<linearGradient id="paint2_linear_191_14144" x1="10.0305" y1="26.7323" x2="19.3082" y2="26.8022" gradientUnits="userSpaceOnUse">
<stop stop-color="white"/>
<stop offset="1" stop-color="white" stop-opacity="0"/>
</linearGradient>
</defs>
</svg>
